<?xml version="1.0" encoding="utf-8"?>
<!-- Generator: Adobe Illustrator 23.0.6, SVG Export Plug-In . SVG Version: 6.00 Build 0)  -->
<svg version="1.1" id="Layer_1" xmlns="http://www.w3.org/2000/svg" xmlns:xlink="http://www.w3.org/1999/xlink" x="0px" y="0px"
	 viewBox="0 0 70 70" style="enable-background:new 0 0 70 70;" xml:space="preserve">
<style type="text/css">
	.st0{fill:none;stroke:#CDD0D1;stroke-miterlimit:10;}
	.st1{fill:url(#SVGID_1_);}
	.st2{fill:url(#SVGID_2_);}
	.st3{fill:url(#SVGID_3_);}
	.st4{fill:#007FE2;}
	.st5{fill:#FFFFFF;}
	.st6{fill:url(#SVGID_4_);}
	.st7{fill:url(#SVGID_5_);}
	.st8{fill:url(#SVGID_6_);}
	.st9{fill:url(#SVGID_7_);}
	.st10{fill:url(#SVGID_8_);}
	.st11{fill:url(#SVGID_9_);}
	.st12{fill:url(#SVGID_10_);}
	.st13{fill:url(#SVGID_11_);}
	.st14{fill:#39D3B8;}
	.st15{fill:url(#SVGID_12_);}
	.st16{fill:url(#SVGID_13_);}
	.st17{fill:url(#SVGID_14_);}
	.st18{opacity:0.32;fill-rule:evenodd;clip-rule:evenodd;fill:#393939;}
</style>
<linearGradient id="SVGID_1_" gradientUnits="userSpaceOnUse" x1="35" y1="0" x2="35" y2="70">
	<stop  offset="0" style="stop-color:#007FE2"/>
	<stop  offset="1" style="stop-color:#39D3B8"/>
</linearGradient>
<rect class="st1" width="70" height="70"/>
<polygon class="st18" points="17,28.6 0,43.3 0,70 36,70 56,46 32,35 26,29 "/>
<g>
	<g>
		<path d="M56.7,25.1c-1.1-2.4-3.5-4.1-6.3-4.1H33.6c-2.8,0-5.2,1.7-6.3,4.1L42,36.1L56.7,25.1z"/>
		<path d="M42.8,38.9c-0.3,0.1-0.6,0.3-0.8,0.3c-0.3,0-0.6-0.1-0.8-0.3l-11.9-9l-2.7-2l0,0l0,0h-8.4c-0.8,0-1.4,0.6-1.4,1.4
			s0.6,1.4,1.4,1.4h7c0.8,0,1.4,0.6,1.4,1.4l0,0c0,0.8-0.6,1.4-1.4,1.4H14c-0.8,0-1.4,0.6-1.4,1.4s0.6,1.4,1.4,1.4h11.2
			c0.8,0,1.4,0.6,1.4,1.4l0,0c0,0.8-0.6,1.4-1.4,1.4h-7c-0.8,0-1.4,0.6-1.4,1.4s0.6,1.4,1.4,1.4h8.4c0,3.9,3.1,7,7,7h16.8
			c3.9,0,7-3.1,7-7V28l0,0L42.8,38.9z"/>
	</g>
	<g>
		<path class="st5" d="M56.7,23.1c-1.1-2.4-3.5-4.1-6.3-4.1H33.6c-2.8,0-5.2,1.7-6.3,4.1L42,34.1L56.7,23.1z"/>
		<path class="st5" d="M42.8,36.9c-0.3,0.1-0.6,0.3-0.8,0.3c-0.3,0-0.6-0.1-0.8-0.3l-11.9-9l-2.7-2l0,0l0,0h-8.4
			c-0.8,0-1.4,0.6-1.4,1.4s0.6,1.4,1.4,1.4h7c0.8,0,1.4,0.6,1.4,1.4l0,0c0,0.8-0.6,1.4-1.4,1.4H14c-0.8,0-1.4,0.6-1.4,1.4
			s0.6,1.4,1.4,1.4h11.2c0.8,0,1.4,0.6,1.4,1.4l0,0c0,0.8-0.6,1.4-1.4,1.4h-7c-0.8,0-1.4,0.6-1.4,1.4s0.6,1.4,1.4,1.4h8.4
			c0,3.9,3.1,7,7,7h16.8c3.9,0,7-3.1,7-7V26l0,0L42.8,36.9z"/>
	</g>
</g>
</svg>
